<?xml version="1.0" standalone="no"?>
<!DOCTYPE svg PUBLIC "-//W3C//DTD SVG 20010904//EN"
 "http://www.w3.org/TR/2001/REC-SVG-20010904/DTD/svg10.dtd">
<svg version="1.0" xmlns="http://www.w3.org/2000/svg"
 width="512.000000pt" height="512.000000pt" viewBox="0 0 512.000000 512.000000"
 preserveAspectRatio="xMidYMid meet">
<metadata>
Created by potrace 1.14, written by Peter Selinger 2001-2017
</metadata>
<g transform="translate(0.000000,512.000000) scale(0.100000,-0.100000)"
fill="#000000" stroke="none">
<path d="M2180 4308 c-5 -14 -9 -17 -10 -8 0 13 -1 13 -10 0 -6 -10 -10 -11
-10 -2 0 6 -5 12 -11 12 -5 0 -8 -4 -5 -8 2 -4 -9 -8 -25 -7 -16 0 -29 4 -29
9 0 5 -7 3 -15 -4 -12 -10 -15 -10 -15 0 0 8 -3 10 -6 7 -4 -3 -16 -1 -28 5
-19 10 -20 10 -7 -6 12 -15 12 -17 0 -14 -8 2 -17 7 -21 12 -4 6 -13 4 -22 -3
-14 -11 -16 -11 -17 5 0 18 -1 18 -9 -1 -6 -13 -9 -15 -9 -5 -1 13 -2 13 -11
0 -6 -10 -10 -11 -10 -2 0 6 -5 12 -11 12 -5 0 -8 -4 -5 -8 8 -13 -60 -8 -77
6 -12 10 -17 10 -23 1 -4 -8 -3 -9 4 -5 7 4 12 2 12 -3 0 -6 -7 -11 -15 -11
-8 0 -15 5 -15 11 0 8 -5 8 -15 -1 -10 -9 -15 -9 -15 -1 0 6 -5 11 -11 11 -5
0 -8 -4 -5 -8 2 -4 -9 -8 -25 -7 -16 0 -29 3 -29 6 0 3 -7 6 -15 6 -10 0 -14
-6 -10 -15 4 -11 2 -12 -8 -4 -10 9 -17 8 -26 -1 -7 -6 -12 -7 -11 -2 2 6 2
17 1 25 -1 13 -3 13 -10 1 -13 -20 -63 -22 -56 -1 3 8 -4 4 -15 -9 -18 -21
-26 -16 -20 14 1 6 -10 -1 -24 -14 -23 -22 -26 -22 -32 -7 -5 14 -9 15 -15 4
-7 -10 -9 -10 -10 2 0 10 -3 8 -9 -5 l-9 -20 0 20 c-1 17 -3 17 -11 5 -8 -12
-10 -12 -11 5 l0 20 -9 -20 c-6 -13 -9 -15 -9 -5 -1 13 -2 13 -11 0 -6 -10
-10 -11 -10 -2 0 6 -5 12 -11 12 -5 0 -8 -4 -5 -8 2 -4 -9 -8 -25 -7 -16 0
-29 4 -29 9 0 5 -3 6 -7 3 -3 -4 -12 -2 -20 5 -11 8 -12 7 -7 -5 4 -11 0 -15
-13 -12 -10 1 -17 8 -15 16 2 9 0 10 -10 2 -7 -6 -21 -9 -31 -8 -10 2 -15 -1
-11 -8 3 -7 -2 -3 -12 8 -14 17 -16 17 -11 3 6 -16 -12 -26 -26 -15 -2 1 -11
-4 -20 -12 -10 -7 -17 -10 -17 -5 0 5 -5 2 -10 -6 -12 -19 -32 -20 -47 0 -10
13 -12 12 -8 -8 3 -19 1 -21 -14 -12 -14 7 -23 5 -35 -9 -21 -24 -21 -37 1
-20 16 13 17 12 4 -3 -7 -10 -18 -15 -24 -11 -7 4 -8 -1 -4 -13 7 -19 7 -19
-8 0 -12 15 -17 17 -29 7 -15 -13 -11 -40 8 -54 7 -5 6 -7 -4 -6 -27 3 -40 -1
-40 -12 0 -5 5 -7 12 -3 7 5 8 3 4 -5 -5 -7 -13 -10 -20 -8 -7 3 -13 -5 -14
-19 -1 -13 3 -24 10 -24 6 0 8 -3 5 -7 -4 -3 -15 1 -26 11 -17 16 -18 16 -16
-8 2 -14 6 -30 11 -37 4 -7 3 -9 -4 -5 -6 3 -13 2 -17 -4 -3 -5 -2 -10 2 -10
5 0 9 -9 10 -20 1 -13 -2 -18 -9 -14 -7 4 -8 2 -4 -5 4 -6 2 -19 -5 -27 -10
-12 -9 -13 4 -9 8 4 18 1 23 -6 4 -7 3 -10 -2 -6 -6 3 -15 -3 -22 -13 -9 -15
-9 -18 1 -14 14 5 16 -33 3 -54 -4 -7 -2 -12 6 -13 7 0 4 -4 -7 -9 -19 -8 -19
-9 -1 -9 16 -1 16 -3 5 -17 -7 -9 -9 -18 -3 -22 5 -4 10 -13 12 -21 3 -12 1
-12 -14 0 -16 13 -16 12 -6 -7 6 -12 8 -24 5 -28 -3 -3 -1 -6 7 -6 10 0 10 -3
0 -15 -7 -8 -9 -15 -4 -15 5 0 9 -13 9 -29 1 -16 -3 -27 -7 -25 -4 3 -8 0 -8
-5 0 -6 6 -11 13 -11 9 0 8 -3 -2 -9 -11 -7 -11 -9 0 -14 10 -4 9 -6 -3 -6 -9
-1 -19 -5 -22 -10 -4 -5 4 -7 16 -4 19 4 20 3 8 -6 -13 -9 -12 -11 5 -12 l20
0 -20 -9 c-13 -6 -15 -9 -5 -9 13 -1 13 -2 0 -11 -13 -9 -13 -10 0 -11 10 0 8
-3 -5 -9 -19 -8 -19 -9 -1 -9 16 -1 16 -3 5 -17 -7 -9 -9 -18 -3 -22 5 -4 10
-13 12 -21 3 -12 1 -12 -14 0 -16 13 -16 12 -6 -7 6 -12 8 -24 5 -28 -3 -3 -1
-6 7 -6 10 0 10 -3 0 -15 -7 -8 -9 -15 -4 -15 5 0 9 -13 9 -29 1 -16 -3 -27
-7 -25 -4 3 -8 0 -8 -5 0 -6 6 -11 13 -11 9 0 8 -3 -2 -9 -11 -7 -11 -9 0 -14
10 -4 9 -6 -3 -6 -9 -1 -19 -5 -22 -10 -4 -5 4 -7 16 -4 17 3 19 2 9 -5 -11
-8 -10 -11 5 -15 18 -4 18 -5 -1 -6 -17 -1 -18 -3 -5 -11 12 -8 12 -10 -5 -10
-16 0 -17 -2 -5 -9 8 -6 19 -7 25 -3 5 3 4 -1 -2 -9 -10 -12 -10 -18 0 -28 9
-10 9 -11 -4 -6 -10 4 -16 0 -16 -10 0 -8 3 -15 6 -15 3 0 6 -13 6 -29 1 -16
-3 -27 -7 -25 -4 3 -8 0 -8 -5 0 -6 5 -11 11 -11 8 0 8 -5 -1 -15 -9 -10 -9
-15 -1 -15 6 0 11 -7 11 -15 0 -8 -5 -15 -11 -15 -5 0 -7 5 -3 12 4 7 3 8 -5
4 -9 -6 -9 -11 1 -23 14 -17 19 -85 6 -77 -4 3 -8 0 -8 -5 0 -6 6 -11 13 -11
9 0 9 -2 -1 -9 -11 -6 -10 -10 4 -15 15 -6 15 -9 -7 -32 -13 -14 -19 -25 -14
-24 30 6 35 -2 14 -20 -13 -11 -17 -18 -9 -15 11 4 15 -3 15 -30 1 -28 -3 -34
-14 -30 -9 4 -5 -6 9 -22 16 -17 18 -22 6 -13 -11 8 -17 10 -13 4 11 -19 16
-65 6 -59 -5 4 -9 1 -9 -4 0 -6 6 -11 13 -11 8 0 7 -4 -3 -10 -10 -6 -11 -10
-2 -10 6 0 12 -5 12 -11 0 -5 -4 -8 -9 -4 -5 3 -13 1 -16 -5 -4 -6 -1 -9 6 -8
7 2 12 -10 14 -29 1 -18 -2 -30 -7 -27 -4 3 -8 0 -8 -5 0 -6 6 -11 13 -11 8 0
7 -4 -3 -10 -13 -9 -13 -10 0 -11 10 0 8 -3 -5 -9 l-20 -9 20 0 c17 -1 17 -3
5 -11 -12 -8 -12 -10 5 -11 l20 0 -20 -9 c-13 -6 -15 -9 -5 -9 12 -1 12 -3 2
-10 -11 -6 -10 -10 4 -15 15 -6 15 -9 -7 -32 -13 -14 -19 -25 -14 -24 30 6 35
-2 14 -20 -13 -11 -17 -18 -9 -15 21 7 19 -43 -1 -56 -12 -7 -12 -9 1 -10 8
-1 19 -1 24 0 5 1 4 -4 -2 -12 -9 -10 -9 -17 1 -26 9 -10 9 -11 -4 -6 -10 4
-16 0 -16 -10 0 -8 3 -15 6 -15 3 0 6 -13 6 -29 1 -16 -3 -27 -7 -25 -4 3 -8
0 -8 -5 0 -6 5 -11 11 -11 8 0 8 -5 -1 -15 -9 -10 -9 -15 -1 -15 6 0 11 -7 11
-15 0 -8 -5 -15 -11 -15 -5 0 -7 5 -3 12 4 7 3 8 -5 4 -9 -6 -9 -11 1 -23 14
-17 19 -85 6 -77 -4 3 -8 0 -8 -5 0 -6 6 -11 13 -11 8 0 7 -4 -3 -10 -13 -9
-13 -10 0 -11 10 0 8 -3 -5 -9 -19 -8 -19 -9 -1 -9 16 -1 16 -3 5 -17 -7 -9
-9 -18 -3 -22 5 -4 10 -13 12 -21 3 -12 1 -12 -14 0 -16 13 -16 12 -6 -7 6
-12 8 -24 5 -28 -3 -3 -1 -6 7 -6 10 0 10 -3 0 -15 -7 -8 -9 -15 -4 -15 5 0 9
-13 9 -29 1 -16 -3 -27 -7 -25 -4 3 -8 0 -8 -5 0 -6 6 -11 13 -11 9 0 8 -3 -2
-9 -11 -7 -11 -9 0 -14 10 -4 9 -6 -3 -6 -9 -1 -19 -5 -22 -10 -4 -5 4 -7 16
-4 19 4 20 3 8 -6 -13 -9 -12 -11 5 -12 l20 0 -20 -9 c-13 -6 -15 -9 -5 -9 13
-1 13 -2 0 -11 -13 -9 -13 -10 0 -11 10 0 8 -3 -5 -9 -19 -8 -19 -9 -1 -9 16
-1 16 -3 5 -17 -7 -9 -9 -18 -3 -22 5 -4 10 -13 12 -21 3 -12 1 -12 -14 0 -16
13 -16 12 -6 -7 6 -12 8 -24 5 -28 -3 -3 -1 -6 7 -6 10 0 10 -3 0 -15 -7 -8
-9 -15 -4 -15 5 0 9 -13 9 -29 1 -16 -3 -27 -7 -25 -4 3 -8 0 -8 -5 0 -6 6
-11 13 -11 9 0 8 -3 -2 -9 -11 -7 -11 -9 0 -14 10 -4 9 -6 -3 -6 -9 -1 -19 -5
-22 -10 -4 -5 4 -7 16 -3 21 5 22 4 9 -12 -12 -14 -12 -19 5 -31 13 -11 14
-13 3 -10 -10 4 -16 0 -16 -9 0 -8 5 -12 11 -9 6 4 5 -1 -3 -10 -9 -11 -10
-17 -2 -17 6 0 11 -5 11 -11 0 -5 -5 -7 -12 -3 -7 4 -8 3 -4 -5 4 -6 2 -18 -4
-26 -10 -12 -8 -13 10 -10 22 4 22 4 4 -17 -11 -12 -14 -18 -8 -15 7 4 15 0
18 -9 3 -8 2 -12 -4 -9 -6 3 -7 -1 -4 -9 3 -9 10 -13 15 -10 5 3 9 0 9 -6 0
-6 6 -8 13 -4 6 4 9 4 5 -1 -4 -4 -3 -16 3 -26 8 -15 6 -18 -8 -13 -15 5 -16
4 -3 -5 13 -10 13 -12 0 -22 -13 -9 -12 -10 2 -5 10 3 20 1 23 -5 4 -5 11 -7
16 -4 13 9 11 -19 -3 -33 -8 -8 -4 -10 18 -7 28 5 28 5 9 -11 -15 -13 -16 -15
-3 -11 9 3 22 -1 28 -9 7 -8 23 -14 36 -14 13 0 24 -5 24 -11 0 -6 -7 -8 -16
-5 -8 3 -13 2 -10 -3 3 -4 30 -7 60 -6 41 1 53 -2 49 -12 -3 -7 -9 -10 -14 -7
-5 3 -9 0 -9 -5 0 -6 3 -11 8 -12 40 -4 60 -3 56 3 -2 3 0 9 6 13 5 3 10 -1
10 -9 0 -19 11 -21 27 -5 8 8 13 7 18 -2 6 -8 4 -10 -5 -4 -9 5 -11 4 -6 -4 4
-6 12 -9 17 -5 5 3 7 9 4 14 -3 5 0 12 6 16 8 4 9 3 5 -4 -4 -7 -1 -13 6 -13
52 -6 78 -3 83 9 4 11 8 12 19 3 17 -14 59 -23 51 -11 -3 5 -1 11 5 15 5 3 10
-2 10 -12 0 -15 2 -16 10 -3 8 12 10 12 11 -5 1 -17 2 -16 9 5 5 16 8 19 9 8
1 -9 6 -20 13 -24 7 -5 8 -3 3 6 -5 8 -3 11 6 8 8 -3 20 2 27 11 12 14 13 14
8 -1 -3 -10 0 -20 6 -24 7 -5 8 -2 3 6 -6 10 0 12 24 8 17 -2 31 -1 31 3 0 4
7 10 16 13 14 5 15 4 5 -8 -9 -11 -9 -16 0 -22 8 -5 9 -3 4 6 -6 10 -3 12 13
8 16 -5 22 -2 22 10 1 15 2 15 11 -1 7 -12 18 -16 36 -12 15 2 32 0 39 -6 8
-7 15 -6 20 2 5 8 3 9 -6 4 -9 -6 -11 -4 -5 5 6 9 4 11 -5 5 -9 -5 -11 -4 -6
3 5 9 12 8 26 0 15 -10 22 -10 31 -1 12 12 42 6 34 -7 -3 -5 0 -12 6 -16 8 -5
9 -3 4 5 -5 9 -2 12 11 9 11 -2 25 3 32 12 12 13 13 13 8 -2 -3 -10 0 -20 6
-24 7 -5 8 -2 3 6 -6 10 -3 12 13 8 15 -4 22 -2 22 9 0 8 5 11 10 8 6 -4 8
-10 5 -15 -3 -5 0 -12 6 -16 8 -5 9 -3 4 6 -6 9 4 11 44 9 37 -3 51 0 51 9 0
7 5 10 10 7 6 -4 8 -10 5 -15 -3 -5 0 -12 6 -16 8 -5 9 -3 4 6 -6 10 -3 12 13
8 12 -4 22 -1 22 4 0 7 5 6 14 -1 11 -9 15 -8 20 5 5 13 9 14 20 5 17 -14 59
-23 51 -11 -3 5 -1 11 5 15 5 3 10 -2 10 -12 0 -15 2 -16 10 -3 8 12 10 12 11
-5 1 -17 2 -16 9 5 4 14 8 18 9 10 1 -20 101 -22 101 -2 0 7 5 10 10 7 6 -4 8
-10 5 -15 -3 -5 0 -12 6 -16 8 -5 9 -3 4 6 -6 10 -3 12 13 8 12 -4 22 -1 22 4
0 7 5 6 14 -1 11 -9 15 -8 20 5 5 13 9 14 20 5 17 -14 59 -23 51 -11 -3 5 -1
11 5 15 5 3 10 -2 10 -12 0 -15 2 -16 10 -3 8 12 10 12 11 -5 1 -17 2 -16 9 5
5 16 8 19 9 8 1 -9 6 -20 13 -24 7 -5 8 -3 3 6 -5 8 -3 11 6 8 8 -3 20 2 27
11 12 14 13 14 8 -1 -3 -10 0 -20 6 -24 7 -5 8 -2 3 6 -6 10 0 12 24 8 17 -2
31 -1 31 3 0 4 7 10 16 13 14 5 15 4 5 -8 -9 -11 -9 -16 0 -22 8 -5 9 -3 4 5
-6 10 7 12 54 9 45 -2 61 0 61 10 0 7 5 10 10 7 6 -4 8 -10 5 -15 -3 -5 0 -12
6 -16 8 -5 9 -3 4 6 -6 10 -3 12 13 8 12 -4 22 -1 22 4 0 7 5 6 14 -1 11 -9
15 -8 20 5 5 13 9 14 20 5 17 -14 59 -23 51 -11 -3 5 -1 11 5 15 5 3 10 -2 10
-12 0 -15 2 -16 10 -3 8 12 10 12 11 -5 1 -17 2 -16 9 5 5 16 8 19 9 8 1 -9 6
-20 13 -24 7 -5 8 -3 3 6 -5 8 -3 11 6 8 8 -3 20 2 27 11 12 14 13 14 8 -1 -3
-10 0 -20 6 -24 7 -5 8 -2 3 6 -6 10 0 12 24 8 17 -2 31 -1 31 3 0 4 7 10 16
13 14 5 15 4 5 -8 -9 -11 -9 -16 0 -22 8 -5 9 -3 4 5 -5 9 1 12 21 9 17 -2 35
3 42 12 12 13 13 13 8 -2 -3 -10 0 -20 6 -24 7 -5 8 -2 3 6 -6 10 0 12 24 8
17 -2 31 -1 31 3 0 4 7 10 16 13 14 5 15 4 5 -8 -9 -11 -9 -16 0 -22 8 -5 9
-3 4 5 -6 10 7 12 54 9 45 -2 61 0 61 10 0 7 5 10 10 7 6 -4 8 -10 5 -15 -3
-5 0 -12 6 -16 8 -5 9 -3 4 6 -6 10 -3 12 13 8 12 -4 22 -1 22 4 0 7 5 6 14
-1 11 -9 15 -8 20 5 5 13 9 14 20 5 17 -14 59 -23 51 -11 -3 5 -1 11 5 15 5 3
10 -2 10 -12 0 -15 2 -16 10 -3 8 12 10 12 11 -5 1 -17 2 -16 9 5 5 16 8 19 9
8 1 -9 6 -20 13 -24 7 -5 8 -3 3 6 -5 8 -3 11 6 8 8 -3 20 2 27 11 12 14 13
14 8 -1 -3 -10 0 -20 6 -24 7 -5 8 -2 3 6 -6 10 0 12 24 8 17 -2 31 -1 31 3 0
4 7 10 16 13 14 5 15 4 5 -8 -9 -11 -9 -16 0 -22 7 -4 9 -3 6 3 -4 6 2 13 13
16 14 4 20 0 21 -11 1 -10 4 -7 9 8 7 21 8 22 9 5 1 -17 3 -17 11 -5 8 12 10
12 11 -5 1 -17 2 -16 9 5 6 20 8 21 9 6 1 -20 1 -20 17 0 8 10 13 13 9 6 -3
-6 -3 -12 2 -13 4 0 18 -2 30 -3 12 -1 20 1 17 6 -3 4 0 16 6 25 9 14 10 14 7
2 -3 -9 1 -16 8 -16 8 0 12 9 9 21 -3 19 -2 19 16 -4 16 -20 19 -21 13 -5 -6
18 -5 19 13 5 18 -14 18 -14 5 3 -8 9 -11 20 -7 24 3 4 13 -2 21 -13 13 -16
14 -16 9 -2 -6 17 5 23 29 19 5 -1 6 3 2 9 -3 5 0 19 8 31 9 13 17 16 22 10 8
-14 25 -14 25 0 0 5 -4 7 -10 4 -6 -3 -10 1 -10 10 0 9 5 13 10 10 6 -3 10 -1
10 5 0 6 5 8 13 4 9 -6 9 -5 0 8 -13 15 -8 28 11 28 6 0 5 -4 -2 -9 -11 -7
-11 -9 0 -14 8 -3 15 1 16 9 1 8 3 21 4 30 1 9 10 19 21 22 14 3 15 7 6 13 -8
4 -17 1 -24 -8 -10 -13 -14 -13 -20 -3 -6 9 -4 11 5 5 10 -6 12 -4 8 7 -5 12
0 15 23 13 16 -1 29 2 29 7 0 6 -7 8 -15 4 -8 -3 -15 -1 -15 5 0 6 -6 7 -12 3
-8 -4 -10 -3 -5 2 5 5 13 10 18 10 5 1 14 2 19 3 6 0 10 6 10 12 0 5 -4 8 -9
5 -5 -3 -11 1 -15 9 -3 8 0 17 6 21 6 4 8 3 5 -3 -3 -5 1 -10 10 -10 12 0 11
5 -7 19 l-22 18 23 1 c23 0 23 1 4 9 -11 5 -14 9 -7 9 9 1 10 6 2 20 -7 14 -7
22 2 27 7 5 8 3 3 -6 -5 -9 -4 -11 4 -6 6 4 9 12 5 17 -3 5 -9 7 -14 4 -5 -3
-11 -1 -15 5 -3 5 0 10 8 10 11 0 13 7 9 22 -4 16 -2 19 8 13 8 -5 11 -4 6 3
-4 6 -14 9 -24 6 -15 -5 -15 -4 -2 8 9 7 14 21 12 32 -3 13 0 16 9 11 8 -5 10
-4 5 4 -4 6 -11 9 -16 6 -13 -8 -19 22 -7 34 9 9 9 16 -1 31 -8 14 -9 21 0 26
7 5 8 3 3 -6 -6 -9 -4 -11 5 -5 9 6 11 4 5 -5 -5 -9 -4 -11 4 -6 8 5 9 12 2
20 -6 7 -8 24 -6 39 4 18 0 29 -12 36 -16 9 -16 10 -1 11 12 0 15 6 10 22 -4
16 -2 19 8 13 9 -5 11 -4 6 4 -6 9 -11 9 -22 0 -12 -10 -13 -9 -8 5 3 9 9 16
13 16 4 0 5 14 3 31 -4 24 -2 30 8 24 8 -5 11 -4 6 3 -4 6 -14 9 -24 6 -15 -5
-15 -4 -1 8 9 7 14 19 11 27 -3 9 0 11 8 6 9 -5 11 -4 6 3 -4 7 -15 12 -24 13
-11 1 -8 4 8 9 21 7 22 8 5 9 -17 1 -17 3 -5 11 13 8 12 10 -3 10 -10 0 -15 5
-12 10 4 6 10 8 15 5 12 -8 3 34 -11 51 -9 11 -8 15 5 20 13 5 14 9 5 20 -7 9
-8 14 -1 14 5 0 8 10 4 22 -4 16 -2 19 8 13 9 -5 11 -4 6 4 -4 6 -11 9 -16 6
-5 -3 -11 -1 -15 5 -3 5 0 10 7 10 10 0 12 16 10 61 -3 47 -1 60 9 54 8 -5 10
-4 5 4 -6 9 -11 9 -22 0 -12 -10 -13 -9 -8 5 3 9 9 16 13 16 4 0 5 14 3 31 -4
24 -2 30 8 24 8 -5 11 -4 6 3 -4 6 -14 9 -24 6 -16 -5 -16 -5 0 8 15 13 15 18
3 41 -11 22 -12 27 0 27 9 0 11 7 7 22 -4 16 -2 19 8 13 8 -5 11 -4 6 3 -4 6
-14 9 -24 6 -15 -5 -15 -4 -2 8 9 7 14 21 12 32 -3 13 0 16 9 11 8 -5 10 -4 5
4 -4 6 -11 9 -16 6 -13 -8 -19 22 -7 34 9 9 9 16 -1 31 -8 14 -9 21 0 26 7 5
8 3 3 -6 -6 -9 -4 -11 5 -5 9 6 11 4 5 -5 -5 -9 -4 -11 4 -6 8 5 9 12 2 20 -6
7 -8 24 -5 39 3 20 0 29 -12 34 -15 5 -14 8 5 15 12 4 19 12 16 18 -4 6 -10 8
-15 5 -5 -3 -11 -1 -15 5 -3 5 0 10 8 10 11 0 13 7 9 22 -4 16 -2 19 8 13 8
-5 11 -4 6 3 -4 6 -14 9 -24 6 -15 -5 -15 -4 -2 8 9 7 14 21 12 32 -3 13 0 16
9 11 8 -5 10 -4 5 4 -4 6 -11 9 -16 6 -13 -8 -19 22 -7 34 9 9 9 16 -1 31 -8
14 -9 21 0 26 7 5 8 3 3 -6 -6 -9 -4 -11 5 -5 9 6 11 4 5 -5 -5 -9 -4 -11 4
-6 8 5 9 12 2 20 -6 7 -8 24 -6 39 4 18 0 29 -12 36 -16 9 -16 10 -1 11 12 0
15 6 10 22 -4 16 -2 19 8 13 9 -5 11 -4 6 4 -6 9 -11 9 -22 0 -12 -10 -13 -9
-8 5 3 9 9 16 13 16 4 0 5 14 3 31 -4 24 -2 30 8 24 8 -5 11 -4 6 3 -4 6 -14
9 -24 6 -15 -5 -15 -4 -1 8 9 7 14 19 11 27 -3 9 0 11 8 6 9 -5 11 -4 6 3 -4
7 -15 12 -24 13 -11 1 -8 4 8 9 21 7 22 8 5 9 -17 1 -17 3 -5 11 13 8 12 10
-3 10 -10 0 -15 5 -12 10 4 6 10 8 15 5 12 -8 3 34 -11 51 -9 11 -8 15 5 20
13 5 14 9 5 20 -7 9 -8 14 -1 14 5 0 8 10 4 22 -4 16 -2 19 8 13 9 -5 11 -4 6
4 -4 6 -11 9 -16 6 -5 -3 -11 -1 -15 5 -3 5 0 10 7 10 10 0 12 16 10 61 -3 47
-1 60 9 54 8 -5 10 -4 5 4 -6 9 -11 9 -22 0 -12 -10 -13 -9 -8 5 3 9 9 16 13
16 4 0 5 14 3 31 -4 24 -2 30 8 24 8 -5 11 -4 6 3 -4 6 -14 9 -24 6 -16 -5
-16 -5 0 8 15 13 15 18 3 41 -11 22 -12 27 0 27 9 0 11 7 7 22 -4 16 -2 19 8
13 8 -5 11 -4 6 3 -4 6 -14 9 -24 6 -15 -5 -15 -4 -2 8 9 7 14 21 12 32 -3 13
0 16 9 11 8 -5 10 -4 5 4 -4 6 -11 9 -16 6 -13 -8 -19 22 -7 34 9 9 9 16 -1
31 -8 14 -9 21 0 26 7 5 8 3 3 -6 -6 -9 -4 -11 5 -5 9 6 11 4 5 -5 -5 -9 -4
-11 4 -6 8 5 9 12 2 20 -6 7 -8 24 -5 39 3 20 0 29 -12 34 -15 5 -14 8 5 15
12 4 19 12 16 18 -4 6 -10 8 -15 5 -5 -3 -11 -1 -15 5 -3 5 0 10 8 10 10 0 13
7 10 20 -3 11 -10 20 -16 20 -6 0 -7 3 -4 6 4 4 13 2 20 -4 10 -9 14 -8 14 3
0 8 -4 12 -8 9 -8 -5 -22 13 -25 33 -1 7 5 9 14 6 16 -6 16 -5 1 13 -16 18
-17 33 -5 64 6 17 -8 38 -44 64 -14 10 -18 16 -8 13 10 -4 15 -1 14 8 -3 20
-27 45 -43 45 -9 0 -13 6 -10 14 4 11 0 13 -17 10 -14 -2 -29 3 -37 13 -8 9
-9 14 -3 10 7 -4 17 0 23 7 10 12 8 13 -10 9 -17 -5 -21 -3 -17 9 4 8 0 15 -8
15 -7 0 -11 -4 -8 -8 2 -4 -1 -11 -7 -15 -8 -4 -9 -3 -5 4 4 7 2 12 -4 12 -6
0 -8 5 -4 11 5 8 -1 10 -20 7 -27 -5 -39 16 -13 25 6 2 0 4 -15 3 -16 0 -28
-5 -28 -11 0 -5 -4 -4 -9 3 -4 7 -26 14 -49 16 -23 2 -39 -1 -36 -5 3 -5 0 -9
-5 -9 -6 0 -11 8 -12 18 0 14 -2 14 -9 -3 -5 -11 -9 -14 -9 -7 -1 8 -6 10 -13
6 -7 -4 -22 -8 -35 -9 -17 0 -22 4 -18 15 3 8 -4 4 -15 -9 -18 -21 -26 -16
-20 14 1 6 -10 -1 -24 -14 -23 -22 -26 -22 -32 -7 -5 14 -9 15 -15 4 -7 -10
-9 -10 -10 2 0 10 -3 8 -9 -5 l-9 -20 0 20 c-1 17 -3 17 -11 5 -8 -12 -10 -12
-11 5 l0 20 -9 -20 c-6 -13 -9 -15 -9 -5 -1 13 -2 13 -11 0 -6 -10 -10 -11
-10 -2 0 6 -5 12 -11 12 -5 0 -8 -4 -5 -8 3 -5 -9 -8 -27 -7 -19 2 -31 7 -29
14 1 7 -2 10 -8 6 -6 -3 -8 -11 -5 -16 4 -5 1 -9 -4 -9 -6 0 -11 6 -11 13 0 8
-4 7 -10 -3 -6 -10 -10 -11 -10 -2 0 6 -5 12 -11 12 -5 0 -8 -4 -4 -9 6 -10
-40 -5 -59 6 -6 4 -4 -2 4 -13 9 -12 4 -10 -13 6 -16 14 -26 18 -22 9 4 -11
-2 -15 -30 -14 -27 0 -34 4 -30 15 3 8 -4 4 -15 -9 -18 -21 -26 -16 -20 14 1
6 -10 -1 -24 -14 -22 -21 -26 -22 -32 -8 -3 9 -11 14 -17 10 -6 -4 -21 -7 -34
-8 -17 0 -22 4 -18 15 3 8 -4 4 -15 -9 -18 -21 -26 -16 -20 14 1 6 -10 -1 -24
-14 -23 -22 -26 -22 -32 -7 -5 14 -9 15 -15 4 -7 -10 -9 -10 -10 2 0 10 -3 8
-9 -5 l-9 -20 0 20 c-1 17 -3 17 -11 5 -8 -12 -10 -12 -11 5 l0 20 -9 -20 c-6
-13 -9 -15 -9 -5 -1 13 -2 13 -11 0 -6 -10 -10 -11 -10 -2 0 6 -5 12 -11 12
-5 0 -8 -4 -5 -8 3 -5 -9 -8 -27 -7 -19 2 -31 7 -29 14 1 7 -2 10 -8 6 -6 -3
-8 -11 -5 -16 4 -5 1 -9 -4 -9 -6 0 -11 6 -11 13 0 8 -4 7 -10 -3 -6 -10 -10
-11 -10 -2 0 6 -5 12 -11 12 -5 0 -8 -4 -4 -9 6 -10 -40 -5 -59 6 -6 4 -4 -2
4 -13 9 -12 4 -10 -13 6 -16 14 -26 18 -22 9 4 -11 -2 -15 -30 -14 -27 0 -34
4 -30 15 3 8 -4 4 -15 -9 -18 -21 -26 -16 -20 14 1 6 -10 -1 -24 -14 -23 -22
-26 -22 -32 -7 -5 14 -9 15 -15 4 -7 -10 -9 -10 -10 2 0 10 -3 8 -9 -5 l-9
-20 0 20 c-1 17 -3 18 -12 5 -9 -12 -10 -11 -6 8 3 12 1 20 -4 16 -5 -3 -9
-13 -9 -22 0 -13 -2 -14 -9 -3 -7 11 -9 11 -14 0 -4 -10 -6 -10 -6 -1 -1 6 -6
12 -12 12 -5 0 -8 -4 -5 -8 2 -4 -9 -8 -25 -7 -16 0 -29 4 -29 9 0 5 -7 3 -15
-4 -12 -10 -15 -10 -15 0 0 8 -3 10 -6 7 -4 -3 -16 -1 -28 5 -19 10 -20 10 -7
-6 12 -15 12 -17 0 -14 -8 2 -17 7 -21 12 -4 6 -13 4 -22 -3 -14 -11 -16 -11
-17 5 0 18 -1 18 -9 -1 -6 -13 -9 -15 -9 -5 -1 13 -2 13 -11 0 -9 -13 -10 -13
-11 0 0 10 -3 8 -9 -5 l-9 -20 0 20 c-1 17 -3 18 -12 5 -9 -12 -10 -11 -6 8 3
12 3 22 1 22 -3 0 -9 -10 -14 -22z m-970 -14 c0 -8 -19 -13 -24 -6 -3 5 1 9 9
9 8 0 15 -2 15 -3z m2711 -11 c13 -16 12 -17 -3 -4 -17 13 -22 21 -14 21 2 0
10 -8 17 -17z m-2923 -58 c-3 -3 -9 2 -12 12 -6 14 -5 15 5 6 7 -7 10 -15 7
-18z m-75 -40 c4 -8 1 -17 -5 -21 -7 -4 -8 -3 -4 4 4 7 2 12 -4 12 -6 0 -8 5
-5 10 8 14 12 13 18 -5z m3268 -42 c13 -16 12 -17 -3 -4 -14 11 -18 11 -18 1
0 -8 -3 -11 -6 -7 -5 5 3 27 10 27 2 0 10 -8 17 -17z m42 -99 c-3 -8 -6 -14
-7 -12 -1 2 -10 16 -20 31 l-17 28 25 -16 c15 -10 23 -22 19 -31z m-3363 -10
c0 -2 -9 0 -20 6 -11 6 -20 13 -20 16 0 2 9 0 20 -6 11 -6 20 -13 20 -16z m0
-2914 c0 -5 -2 -10 -4 -10 -3 0 -8 5 -11 10 -3 6 -1 10 4 10 6 0 11 -4 11 -10z
m30 -80 c0 -5 -5 -10 -11 -10 -5 0 -7 5 -4 10 3 6 8 10 11 10 2 0 4 -4 4 -10z
m73 -87 c-3 -7 -9 -10 -14 -7 -14 8 -11 21 5 21 8 0 12 -6 9 -14z m54 -35 c-3
-8 -6 -5 -6 6 -1 11 2 17 5 13 3 -3 4 -12 1 -19z m2939 -23 c-1 -8 -5 -17 -8
-21 -5 -4 -4 16 1 34 3 9 9 -1 7 -13z m-2702 -13 c3 -5 -1 -9 -9 -9 -8 0 -12
4 -9 9 3 4 7 8 9 8 2 0 6 -4 9 -8z"/>
<path d="M1071 4294 c-16 -7 -33 -9 -37 -6 -5 4 -2 -1 6 -11 12 -16 14 -17 22
-2 5 8 13 13 18 10 5 -3 11 -1 15 5 4 6 10 8 15 5 5 -3 11 -2 14 3 8 13 -18
11 -53 -4z"/>
<path d="M1460 4299 c0 -5 5 -7 10 -4 6 3 10 8 10 11 0 2 -4 4 -10 4 -5 0 -10
-5 -10 -11z"/>
<path d="M2580 4299 c0 -5 5 -7 10 -4 6 3 10 8 10 11 0 2 -4 4 -10 4 -5 0 -10
-5 -10 -11z"/>
<path d="M3060 4299 c0 -5 5 -7 10 -4 6 3 10 8 10 11 0 2 -4 4 -10 4 -5 0 -10
-5 -10 -11z"/>
<path d="M3220 4299 c0 -5 5 -7 10 -4 6 3 10 8 10 11 0 2 -4 4 -10 4 -5 0 -10
-5 -10 -11z"/>
<path d="M3700 4299 c0 -5 5 -7 10 -4 6 3 10 8 10 11 0 2 -4 4 -10 4 -5 0 -10
-5 -10 -11z"/>
<path d="M4120 4210 c-9 -6 -10 -10 -3 -10 6 0 15 5 18 10 8 12 4 12 -15 0z"/>
<path d="M873 4165 c0 -8 4 -15 9 -15 4 0 8 4 8 9 0 6 -4 12 -8 15 -5 3 -9 -1
-9 -9z"/>
<path d="M4249 4028 c-6 -21 -5 -38 1 -38 5 0 8 9 7 20 -1 17 -5 26 -8 18z"/>
<path d="M4245 3680 c-3 -5 -1 -10 4 -10 6 0 11 5 11 10 0 6 -2 10 -4 10 -3 0
-8 -4 -11 -10z"/>
<path d="M4256 3527 c3 -10 9 -15 12 -12 3 3 0 11 -7 18 -10 9 -11 8 -5 -6z"/>
<path d="M4248 3163 c7 -3 16 -2 19 1 4 3 -2 6 -13 5 -11 0 -14 -3 -6 -6z"/>
<path d="M810 2849 c0 -5 5 -7 10 -4 6 3 10 8 10 11 0 2 -4 4 -10 4 -5 0 -10
-5 -10 -11z"/>
<path d="M4245 2720 c-3 -5 -1 -10 4 -10 6 0 11 5 11 10 0 6 -2 10 -4 10 -3 0
-8 -4 -11 -10z"/>
<path d="M4245 2400 c-3 -5 -1 -10 4 -10 6 0 11 5 11 10 0 6 -2 10 -4 10 -3 0
-8 -4 -11 -10z"/>
<path d="M810 2369 c0 -5 5 -7 10 -4 6 3 10 8 10 11 0 2 -4 4 -10 4 -5 0 -10
-5 -10 -11z"/>
<path d="M4256 2247 c3 -10 9 -15 12 -12 3 3 0 11 -7 18 -10 9 -11 8 -5 -6z"/>
<path d="M4248 1883 c7 -3 16 -2 19 1 4 3 -2 6 -13 5 -11 0 -14 -3 -6 -6z"/>
<path d="M4245 1440 c-3 -5 -1 -10 4 -10 6 0 11 5 11 10 0 6 -2 10 -4 10 -3 0
-8 -4 -11 -10z"/>
<path d="M837 1079 c7 -7 15 -10 18 -7 3 3 -2 9 -12 12 -14 6 -15 5 -6 -5z"/>
<path d="M4125 961 c-3 -5 -2 -12 3 -15 5 -3 9 1 9 9 0 17 -3 19 -12 6z"/>
<path d="M1027 881 c-10 -14 -10 -14 4 -4 9 7 18 10 21 7 3 -3 8 -1 12 4 9 16
-24 9 -37 -7z"/>
<path d="M1311 864 c0 -11 3 -14 6 -6 3 7 2 16 -1 19 -3 4 -6 -2 -5 -13z"/>
<path d="M1755 870 c-3 -5 -1 -10 4 -10 6 0 11 5 11 10 0 6 -2 10 -4 10 -3 0
-8 -4 -11 -10z"/>
<path d="M2111 864 c0 -11 3 -14 6 -6 3 7 2 16 -1 19 -3 4 -6 -2 -5 -13z"/>
<path d="M2431 864 c0 -11 3 -14 6 -6 3 7 2 16 -1 19 -3 4 -6 -2 -5 -13z"/>
<path d="M2911 864 c0 -11 3 -14 6 -6 3 7 2 16 -1 19 -3 4 -6 -2 -5 -13z"/>
<path d="M3551 864 c0 -11 3 -14 6 -6 3 7 2 16 -1 19 -3 4 -6 -2 -5 -13z"/>
</g>
</svg>
